<svg width="52" height="52" viewBox="0 0 52 52" fill="none" xmlns="http://www.w3.org/2000/svg">
<rect width="52" height="52" rx="26" fill="#E6F2FF"/>
<path d="M16.5951 20.2443C16.5951 23.2864 18.4518 25.4002 21.9938 26.3285L29.192 28.2852C31.4772 28.9136 32.6483 30.099 32.6483 31.7557V32.3128C30.6345 32.8983 29.1635 34.7693 29.1635 36.9688C29.1635 39.6395 31.3486 41.8104 34.0337 41.8104C36.7045 41.8104 38.8754 39.6395 38.8754 36.9688C38.8754 34.7693 37.4043 32.8983 35.4048 32.3128V31.7557C35.4048 28.7136 33.5481 26.6141 30.0061 25.6715L22.7936 23.7149C20.537 23.1007 19.3516 21.901 19.3516 20.2443V19.6873C21.3654 19.1017 22.8221 17.245 22.8221 15.0313C22.8221 12.3605 20.6512 10.1896 17.9662 10.1896C15.2954 10.1896 13.1245 12.3605 13.1245 15.0313C13.1245 17.245 14.5956 19.1017 16.5951 19.6873V20.2443ZM34.0337 34.7407C35.262 34.7407 36.2474 35.7262 36.2474 36.9688C36.2474 38.2256 35.262 39.1968 34.0337 39.1968C32.7626 39.1968 31.7914 38.2256 31.7914 36.9688C31.7914 35.7119 32.7626 34.7407 34.0337 34.7407Z" fill="#0063CF"/>
</svg>
